:SAMPLES-PER-SECOND 30
:FULLY-SPECIFIED
:DEGREES
532
root  -6.80928 34.5118 -3.51786 4.21269 50.4643 -5.61468
LeftUpLeg  -10.4029 9.52135 0.384046
LeftLeg  7.62191 4.53547 0.311184
LeftFoot  0.489425 0.00135003 0.0431678
LeftToes  -9.04687 6.91067e-007 1.07128e-007
Spine  3.90095 0.944767 -2.20389
Spine1  7.75486 2.06642 -4.37587
RightShoulder  -0.0148195 3.51628 -0.381608
RightArm  38.738 -40.0467 53.1966
RightForeArm  13.044 80.0655 90.2365
RightHand  8.37184 -37.8994 -23.693
LeftShoulder1  -0.00284673 1.49771 -5.98161
LeftArm  49.0314 32.7885 -33.4988
LeftForeArm  63.7506 -76.1495 -134.458
LeftHand  8.28096 36.4547 24.4219
HEad  -6.33556 -8.88361 -1.69768
RightUpLeg  -18.1376 -15.2493 -0.213184
RightLeg  21.4389 -2.99441 -0.960085
RightFoot  7.58523 0.0533844 -0.427708
RightToes  -38.1672 -0.204517 -0.303343
533
root  -6.73993 34.5111 -3.45628 3.4963 50.5421 -6.00596
LeftUpLeg  -9.84451 9.2757 0.739007
LeftLeg  7.67177 4.72741 0.328484
LeftFoot  0.284985 0.00178893 0.0280795
LeftToes  -9.15517 6.91067e-007 1.07128e-007
Spine  4.03471 0.939602 -2.23984
Spine1  8.02217 2.06439 -4.44443
RightShoulder  -0.0146643 3.41905 -0.273625
RightArm  38.7827 -39.5495 53.211
RightForeArm  12.1261 80.0686 88.8613
RightHand  8.15785 -38.0229 -23.0134
LeftShoulder1  -0.00315076 1.44366 -5.70306
LeftArm  49.2121 32.2956 -33.6827
LeftForeArm  63.8489 -76.1162 -134.603
LeftHand  8.31077 36.3452 24.5864
HEad  -6.89029 -10.5569 -1.20234
RightUpLeg  -17.5946 -14.4706 -0.136735
RightLeg  19.4695 -1.89757 -0.53729
RightFoot  8.60207 0.0516403 -0.309046
RightToes  -38.8164 -0.202925 -0.302269
534
root  -6.70081 34.5154 -3.40242 3.33478 50.4349 -6.07585
LeftUpLeg  -9.67558 8.97945 0.851831
LeftLeg  7.82985 5.16822 0.373408
LeftFoot  0.12694 0.00202808 0.016265
LeftToes  -8.8039 6.91067e-007 1.07128e-007
Spine  4.04997 0.931181 -2.27396
Spine1  8.05192 2.05243 -4.51255
RightShoulder  -0.0145324 3.51491 -0.26884
RightArm  38.8665 -39.3929 53.1463
RightForeArm  11.6598 80.0689 87.8767
RightHand  7.94386 -38.0864 -22.3744
LeftShoulder1  -0.00345146 1.41138 -5.80835
LeftArm  49.2555 32.3515 -33.4652
LeftForeArm  64.0195 -76.1391 -134.499
LeftHand  8.19857 36.3173 24.2783
HEad  -7.70195 -11.5651 -0.786981
RightUpLeg  -17.4118 -13.6757 -0.178588
RightLeg  17.3021 -0.844892 -0.204826
RightFoot  9.77003 0.0461968 -0.162959
RightToes  -38.4173 -0.201301 -0.301043
535
root  -6.68835 34.5203 -3.35299 3.08663 50.3317 -6.21915
LeftUpLeg  -9.49575 8.72838 1.03606
LeftLeg  7.93361 5.55244 0.411233
LeftFoot  0.0443688 0.00196767 0.00935999
LeftToes  -8.75138 6.91067e-007 1.07128e-007
Spine  4.06606 0.926225 -2.26559
Spine1  8.08442 2.04499 -4.49634
RightShoulder  -0.0143619 3.52494 -0.213597
RightArm  39.0551 -39.3244 52.9805
RightForeArm  11.5948 80.0697 87.9152
RightHand  7.94333 -38.0117 -22.4198
LeftShoulder1  -0.00374817 1.54287 -5.94878
LeftArm  49.1605 32.4248 -33.4775
LeftForeArm  63.9622 -76.1813 -134.312
LeftHand  8.18766 36.2251 24.3114
HEad  -8.72521 -12.2317 -0.409411
RightUpLeg  -17.4158 -13.6276 -0.058287
RightLeg  15.4387 0.331248 0.0693491
RightFoot  11.17 0.032168 0.0485868
RightToes  -37.9043 -0.19986 -0.29977
536
root  -6.67989 34.5331 -3.29139 2.91023 50.1357 -6.38823
LeftUpLeg  -9.34971 8.9763 1.24002
LeftLeg  7.92468 5.50647 0.40697
LeftFoot  0.0620146 0.00120833 0.0136563
LeftToes  -8.81536 6.91067e-007 1.07128e-007
Spine  4.0129 0.950608 -2.23736
Spine1  7.97773 2.09236 -4.43974
RightShoulder  -0.0141607 3.49511 -0.212901
RightArm  39.3541 -39.3735 52.796
RightForeArm  11.4023 80.0699 87.9048
RightHand  7.97059 -38.0265 -22.4869
LeftShoulder1  -0.00404021 1.72141 -6.07061
LeftArm  48.9861 32.6539 -33.4645
LeftForeArm  63.9479 -76.107 -134.642
LeftHand  8.368 36.2021 24.8562
HEad  -9.87088 -12.5597 -0.0853323
RightUpLeg  -17.5348 -13.8678 0.158268
RightLeg  13.708 1.40709 0.249561
RightFoot  12.815 0.00887237 0.298527
RightToes  -37.4992 -0.19882 -0.298558
537
root  -6.66788 34.5465 -3.209 2.83163 50.115 -6.60533
LeftUpLeg  -9.26657 9.1926 1.47034
LeftLeg  7.77215 5.33029 0.379732
LeftFoot  0.150942 0.000372075 0.0195727
LeftToes  -9.03179 6.91067e-007 1.07128e-007
Spine  3.90013 0.926269 -2.16941
Spine1  7.7546 2.03635 -4.307
RightShoulder  -0.0139258 3.41077 -0.214248
RightArm  39.8015 -39.4199 52.4852
RightForeArm  11.9245 80.07 88.8456
RightHand  8.0695 -38.0943 -22.7207
LeftShoulder1  -0.00432691 1.72054 -6.1602
LeftArm  49.0204 33.0582 -33.2636
LeftForeArm  64.1521 -76.04 -134.931
LeftHand  8.37047 36.2017 24.8638
HEad  -10.755 -12.8117 0.044046
RightUpLeg  -17.6769 -14.6558 0.460612
RightLeg  12.0097 2.24291 0.329369
RightFoot  14.4415 -0.0213222 0.545814
RightToes  -36.9929 -0.198016 -0.297513
538
root  -6.66369 34.5433 -3.11689 2.98549 50.2996 -6.53312
LeftUpLeg  -9.25099 9.25079 1.52452
LeftLeg  7.70072 5.13425 0.359356
LeftFoot  0.15167 -2.3228e-005 0.0191462
LeftToes  -9.23164 6.91067e-007 1.07128e-007
Spine  3.82048 0.874972 -2.12224
Spine1  7.59822 1.92864 -4.21689
RightShoulder  -0.0136702 3.33389 -0.24731
RightArm  39.9923 -39.4164 52.3613
RightForeArm  12.3083 80.0681 89.403
RightHand  8.16262 -38.2036 -22.9107
LeftShoulder1  -0.00460759 1.59132 -6.12351
LeftArm  49.2751 33.1771 -33.1283
LeftForeArm  63.8655 -76.0779 -134.772
LeftHand  8.32057 36.2634 24.6734
HEad  -11.186 -13.1094 -0.0439057
RightUpLeg  -17.7572 -15.5553 0.517129
RightLeg  10.5321 2.3529 0.283887
RightFoot  15.7769 -0.0341467 0.623968
RightToes  -36.7346 -0.19714 -0.295943
539
root  -6.66674 34.5196 -3.00135 3.32772 50.5941 -6.19742
LeftUpLeg  -9.32251 9.26887 1.45277
LeftLeg  7.85534 4.84155 0.351968
LeftFoot  0.0586597 0.000150513 0.0104712
LeftToes  -9.74576 6.91067e-007 1.07128e-007
Spine  3.77908 0.838475 -2.11186
Spine1  7.51665 1.85404 -4.19917
RightShoulder  -0.0134035 3.31133 -0.294059
RightArm  39.8689 -39.4179 52.5007
RightForeArm  11.1928 80.0632 88.0752
RightHand  8.09343 -38.3105 -22.6505
LeftShoulder1  -0.00488159 1.38202 -6.00235
LeftArm  49.6848 33.0193 -33.0334
LeftForeArm  63.6962 -76.1283 -134.554
LeftHand  8.26851 36.3573 24.4544
HEad  -11.248 -13.509 -0.236033
RightUpLeg  -17.6785 -15.8533 0.281093
RightLeg  9.32061 1.28382 0.128111
RightFoot  16.6546 0.00423447 0.348604
RightToes  -37.0334 -0.196189 -0.293671
540
root  -6.67732 34.4819 -2.8699 3.78033 50.7716 -5.58233
LeftUpLeg  -9.31568 9.33613 1.27301
LeftLeg  8.14201 4.57056 0.355201
LeftFoot  -0.201455 0.00117315 -0.0107161
LeftToes  -9.99961 6.91067e-007 1.07128e-007
Spine  3.76956 0.858915 -2.15979
Spine1  7.49563 1.89762 -4.29392
RightShoulder  -0.0131394 3.40589 -0.308701
RightArm  39.7658 -39.3575 52.7246
RightForeArm  9.77199 80.0497 86.407
RightHand  8.02054 -38.3053 -22.4512
LeftShoulder1  -0.00514822 1.29895 -5.88437
LeftArm  49.9739 32.621 -33.0156
LeftForeArm  63.6674 -76.2 -134.235
LeftHand  8.20954 36.3704 24.273
HEad  -10.5749 -13.8193 -0.563346
RightUpLeg  -17.4796 -15.7514 -0.175469
RightLeg  8.66233 0.143649 0.013932
RightFoot  16.6541 0.0523 0.0202276
RightToes  -37.0249 -0.195164 -0.291035
541
root  -6.68219 34.4378 -2.7095 4.18594 50.8621 -4.83202
LeftUpLeg  -9.07388 9.46658 1.07429
LeftLeg  8.37487 4.31707 0.3531
LeftFoot  -0.4226 0.00190771 -0.0266614
LeftToes  -10.5533 6.91067e-007 1.07128e-007
Spine  3.80293 0.928486 -2.23621
Spine1  7.5579 2.04226 -4.4417
RightShoulder  -0.0128572 3.52266 -0.28185
RightArm  39.5758 -39.3472 52.9256
RightForeArm  8.72611 80.0347 85.1965
RightHand  7.93079 -38.325 -22.1894
LeftShoulder1  -0.00540682 1.31063 -5.82359
LeftArm  49.971 32.2316 -33.0285
LeftForeArm  63.5452 -76.2544 -133.991
LeftHand  8.18393 36.3426 24.2177
HEad  -9.48008 -14.246 -0.841081
RightUpLeg  -17.0119 -15.3159 -0.743098
RightLeg  8.43618 -0.231528 -0.0178188
RightFoot  15.7276 0.0636495 -0.0832809
RightToes  -36.8669 -0.19395 -0.288326
